<svg id="Layer_1" data-name="Layer 1" xmlns="http://www.w3.org/2000/svg" viewBox="0 0 199.7 44.9"><defs><style>.cls-1{fill:#fff;}.cls-2{fill:#337ab7;}</style></defs><title>logo_nextoner-white</title><path class="cls-1" d="M90.6,5.2v5.6A1.16,1.16,0,0,0,91.8,12h1.3a1.16,1.16,0,0,1,1.2,1.2v4a1.16,1.16,0,0,1-1.2,1.2H91.8a1.16,1.16,0,0,0-1.2,1.2V32.5a3.55,3.55,0,0,0,.1.7,1.21,1.21,0,0,0,.5.1h1.9a1.16,1.16,0,0,1,1.2,1.2v4.9a1.16,1.16,0,0,1-1.2,1.2H90.5a6.86,6.86,0,0,1-5.2-2.1,7.31,7.31,0,0,1-2.1-5.6V19.5A1.16,1.16,0,0,0,82,18.3H79.2a1.21,1.21,0,0,1-.9-2L88.5,4.4A1.21,1.21,0,0,1,90.6,5.2Z"/><path class="cls-1" d="M118.5,15.4a10.89,10.89,0,0,0-3.2-2.7,13.47,13.47,0,0,0-5.4-1.2,10.66,10.66,0,0,0-5.3,1.2,10.79,10.79,0,0,0-3.2,2.5A9.91,9.91,0,0,0,99,19.3a23.59,23.59,0,0,0-.7,6.7,22.37,22.37,0,0,0,.7,6.6,12.23,12.23,0,0,0,2.3,4.2,11.87,11.87,0,0,0,3.2,2.5,10.77,10.77,0,0,0,5.4,1.3,11.22,11.22,0,0,0,5.3-1.2,7.82,7.82,0,0,0,1.9-1.2,16.65,16.65,0,0,0,1.3-1.2,11,11,0,0,0,2.4-4.2,27,27,0,0,0,.7-6.6,23.59,23.59,0,0,0-.7-6.7A9.58,9.58,0,0,0,118.5,15.4Zm-4.7,14.5a3.7,3.7,0,0,1-.8,1.8,3.45,3.45,0,0,1-1.3,1,4.35,4.35,0,0,1-3.7,0,4.88,4.88,0,0,1-1.3-1,5.45,5.45,0,0,1-.8-1.9,15.81,15.81,0,0,1-.3-3.7,17.44,17.44,0,0,1,.3-3.8,3.85,3.85,0,0,1,.8-1.7,2.68,2.68,0,0,1,1.3-1,4.06,4.06,0,0,1,1.9-.4,4.48,4.48,0,0,1,2,.4,2.54,2.54,0,0,1,1.2,1.1,4.47,4.47,0,0,1,.8,1.7,32.45,32.45,0,0,1,.2,3.9A16,16,0,0,1,113.8,29.9Z"/><path class="cls-1" d="M138.2,11.6a9.59,9.59,0,0,1,6.5,2.6c2,1.8,3,4.3,3.1,7.6V38a2.43,2.43,0,0,1-2.4,2.4h-2.7a2.43,2.43,0,0,1-2.4-2.4V23.7a5,5,0,0,0-1.1-3.4,3.34,3.34,0,0,0-2.7-1.1,4.11,4.11,0,0,0-2.8,1.1,4.37,4.37,0,0,0-1.1,3.4V38a2.43,2.43,0,0,1-2.4,2.4h-2.7a2.43,2.43,0,0,1-2.4-2.4V14a2.43,2.43,0,0,1,2.4-2.4Z"/><path class="cls-1" d="M171.5,14.9a11.85,11.85,0,0,0-8.1-3.3,15.33,15.33,0,0,0-4.1.7,9.34,9.34,0,0,0-3.8,2.5,13.15,13.15,0,0,0-2.7,4.5,19.14,19.14,0,0,0-1,6.8,17.6,17.6,0,0,0,1.2,7,12.5,12.5,0,0,0,2.9,4.6,10.72,10.72,0,0,0,1.9,1.3,20,20,0,0,0,2.1,1,16.19,16.19,0,0,0,4.4.7,12.76,12.76,0,0,0,8.1-2.9,2.19,2.19,0,0,0,.1-3.3l-2.3-2.1a2.11,2.11,0,0,0-2.6-.2,6.3,6.3,0,0,1-3.5,1.1,4.6,4.6,0,0,1-3.5-1.3,3.45,3.45,0,0,1-.9-1.2,1.08,1.08,0,0,1,1-1.5h13.1a1.11,1.11,0,0,0,1.1-1.1V23.8A12.14,12.14,0,0,0,171.5,14.9Zm-5.7,7.8h-5a1.22,1.22,0,0,1-1.1-1.7,3.49,3.49,0,0,1,.6-.9,3.77,3.77,0,0,1,2.9-1.1,4,4,0,0,1,2.9,1.1,2.36,2.36,0,0,1,.6.9A1.06,1.06,0,0,1,165.8,22.7Z"/><path class="cls-1" d="M191.7,11.6H181.2a2.43,2.43,0,0,0-2.4,2.4V38a2.43,2.43,0,0,0,2.4,2.4h2.6a2.43,2.43,0,0,0,2.4-2.4V23.5a4.16,4.16,0,0,1,1.2-3.3,3.61,3.61,0,0,1,4.2-.6,1.36,1.36,0,0,0,1.7-.3l3.6-4.3a1.24,1.24,0,0,0-.3-1.9A8.58,8.58,0,0,0,191.7,11.6Z"/><path class="cls-2" d="M17.4,12.2H6.4a1.54,1.54,0,0,0-1.5,1.5V38.9a1.54,1.54,0,0,0,1.5,1.5H8.8a1.54,1.54,0,0,0,1.5-1.5V23.8a6.44,6.44,0,0,1,1.5-4.5,5.29,5.29,0,0,1,3.8-1.6,4.78,4.78,0,0,1,3.8,1.6,6.11,6.11,0,0,1,1.5,4.5V38.9a1.54,1.54,0,0,0,1.5,1.5h2.4a1.54,1.54,0,0,0,1.5-1.5v-17c-.1-3.2-1-5.6-2.9-7.2A8.16,8.16,0,0,0,17.4,12.2Z"/><path class="cls-2" d="M41.2,12.2a10.72,10.72,0,0,0-3.9.7,10.33,10.33,0,0,0-3.6,2.4,11.67,11.67,0,0,0-2.6,4.4,19.36,19.36,0,0,0-1,6.9,17.27,17.27,0,0,0,1.2,7,9.77,9.77,0,0,0,2.8,4.3A12.73,12.73,0,0,0,36,39.2a7.22,7.22,0,0,0,2,.9,14.71,14.71,0,0,0,4.2.6,12.46,12.46,0,0,0,8.5-3.3,1.48,1.48,0,0,0,0-2.2L49,33.7a1.52,1.52,0,0,0-2,0,7.68,7.68,0,0,1-5,1.8,6.18,6.18,0,0,1-4.6-1.8,5.28,5.28,0,0,1-1.7-3.3,1.5,1.5,0,0,1,1.5-1.8H50.9a1.54,1.54,0,0,0,1.5-1.5V24c0-3.7-1.1-6.5-3.3-8.6A11,11,0,0,0,41.2,12.2ZM37.2,24a1.5,1.5,0,0,1-1.5-1.8,6.93,6.93,0,0,1,1.5-3.1,5.2,5.2,0,0,1,4-1.6,5.2,5.2,0,0,1,4,1.6,6.93,6.93,0,0,1,1.5,3.1A1.5,1.5,0,0,1,45.2,24Z"/><path class="cls-2" d="M68.4,25.3l7-10.4a1.45,1.45,0,0,0-1.2-2.3H71.4a1.71,1.71,0,0,0-1.3.7l-3.6,6.1a1.5,1.5,0,0,1-2.6,0l-3.6-6.1a1.46,1.46,0,0,0-1.3-.7H56a1.52,1.52,0,0,0-1.3,2.3l6.8,10.5a1.53,1.53,0,0,1,0,1.6L54.3,38.1a1.52,1.52,0,0,0,1.3,2.3h2.9a1.71,1.71,0,0,0,1.3-.7l4-6.5a1.59,1.59,0,0,1,2.6,0l4,6.5a1.71,1.71,0,0,0,1.3.7h2.8a1.52,1.52,0,0,0,1.3-2.3l-7.4-11A1.91,1.91,0,0,1,68.4,25.3Z"/></svg>