<?xml version="1.0" encoding="utf-8"?>
<!-- Generator: Adobe Illustrator 19.0.1, SVG Export Plug-In . SVG Version: 6.00 Build 0)  -->
<svg version="1.1" id="Layer_1" xmlns="http://www.w3.org/2000/svg" xmlns:xlink="http://www.w3.org/1999/xlink" x="0px" y="0px"
	 viewBox="0 0 199.7 44.9" style="enable-background:new 0 0 199.7 44.9;" xml:space="preserve">
<style type="text/css">
	.st0{fill:url(#SVGID_1_);}
	.st1{fill:url(#SVGID_2_);}
	.st2{fill:url(#SVGID_3_);}
	.st3{fill:url(#SVGID_4_);}
	.st4{fill:url(#SVGID_5_);}
	.st5{fill:#337AB7;}
	.st6{fill:#414042;}
	.st7{fill:#58595B;}
	.st8{fill:#6D6E71;}
	.st9{fill:#808285;}
</style>
<g>
	<path class="st6" d="M90.6,5.2v5.6c0,0.7,0.5,1.2,1.2,1.2h1.3c0.7,0,1.2,0.5,1.2,1.2v4c0,0.7-0.5,1.2-1.2,1.2h-1.3
		c-0.7,0-1.2,0.5-1.2,1.2v12.9c0,0.4,0.1,0.6,0.1,0.7c0,0,0.2,0.1,0.5,0.1h1.9c0.7,0,1.2,0.5,1.2,1.2v4.9c0,0.7-0.5,1.2-1.2,1.2
		h-2.6c-2.1,0-3.9-0.7-5.2-2.1c-1.4-1.3-2.1-3.2-2.1-5.6V19.5c0-0.7-0.5-1.2-1.2-1.2h-2.8c-1,0-1.6-1.2-0.9-2L88.5,4.4
		C89.2,3.6,90.6,4.1,90.6,5.2z"/>
	<path class="st6" d="M118.5,15.4c-0.8-1-1.8-1.9-3.2-2.7c-1.4-0.7-3.2-1.1-5.4-1.2c-2.1,0-3.9,0.4-5.3,1.2
		c-1.4,0.8-2.5,1.6-3.2,2.5c-1.1,1.1-1.9,2.5-2.4,4.1c-0.5,1.6-0.7,3.8-0.7,6.7c0,2.9,0.2,5.1,0.7,6.6c0.5,1.6,1.3,3,2.3,4.2
		c0.8,0.9,1.9,1.8,3.2,2.5c1.4,0.8,3.2,1.3,5.4,1.3c2.2,0,4-0.5,5.3-1.2c0.8-0.4,1.5-0.8,1.9-1.2c0.5-0.4,1-0.9,1.3-1.2
		c1.1-1.2,1.9-2.6,2.4-4.2c0.4-1.6,0.7-3.7,0.7-6.6c0-2.9-0.2-5.1-0.7-6.7C120.3,17.8,119.5,16.4,118.5,15.4z M113.8,29.9
		c-0.1,0.7-0.4,1.3-0.8,1.8c-0.3,0.4-0.7,0.7-1.3,1c-1,0.5-2.6,0.6-3.7,0c-0.6-0.3-1-0.7-1.3-1c-0.4-0.5-0.6-1.2-0.8-1.9
		c-0.2-0.7-0.3-2-0.3-3.7c0-1.7,0.1-3,0.3-3.8c0.2-0.7,0.4-1.3,0.8-1.7c0.3-0.4,0.7-0.8,1.3-1c0.6-0.3,1.2-0.4,1.9-0.4
		c0.7,0,1.4,0.1,2,0.4c0.5,0.2,0.9,0.6,1.2,1.1c0.4,0.5,0.6,1,0.8,1.7c0.1,0.8,0.2,2.1,0.2,3.9C114.1,27.9,114,29.1,113.8,29.9z"/>
	<path class="st6" d="M138.2,11.6c2.4,0,4.6,0.9,6.5,2.6c2,1.8,3,4.3,3.1,7.6V38c0,1.3-1.1,2.4-2.4,2.4h-2.7c-1.3,0-2.4-1.1-2.4-2.4
		V23.7c0-1.5-0.4-2.6-1.1-3.4c-0.7-0.8-1.6-1.1-2.7-1.1c-1.1,0-2,0.4-2.8,1.1c-0.8,0.8-1.1,1.8-1.1,3.4V38c0,1.3-1.1,2.4-2.4,2.4
		h-2.7c-1.3,0-2.4-1.1-2.4-2.4V14c0-1.3,1.1-2.4,2.4-2.4H138.2z"/>
	<path class="st6" d="M171.5,14.9c-2.2-2.1-4.9-3.2-8.1-3.3c-1.3,0-2.7,0.3-4.1,0.7c-1.4,0.5-2.7,1.3-3.8,2.5
		c-1.1,1.1-2,2.7-2.7,4.5c-0.7,1.8-1,4.1-1,6.8c0,2.8,0.4,5.2,1.2,7c0.7,1.9,1.7,3.4,2.9,4.6c0.6,0.5,1.3,1,1.9,1.3
		c0.7,0.4,1.4,0.7,2.1,1c1.4,0.5,2.9,0.6,4.4,0.7c3,0,5.7-1,8.1-2.9c1-0.8,1.1-2.4,0.1-3.3l-2.3-2.1c-0.7-0.7-1.8-0.7-2.6-0.2
		c-1.1,0.7-2.2,1.1-3.5,1.1c-1.5,0-2.6-0.4-3.5-1.3c-0.4-0.3-0.7-0.8-0.9-1.2c-0.3-0.7,0.2-1.5,1-1.5l13.1,0c0.6,0,1.1-0.5,1.1-1.1
		v-4.4C174.9,20.1,173.7,17.1,171.5,14.9z M165.8,22.7l-5,0c-0.9,0-1.4-0.9-1.1-1.7c0.2-0.4,0.4-0.7,0.6-0.9
		c0.8-0.8,1.7-1.1,2.9-1.1c1.2,0,2.2,0.4,2.9,1.1c0.3,0.3,0.5,0.6,0.6,0.9C167.3,21.7,166.7,22.7,165.8,22.7z"/>
	<path class="st6" d="M191.7,11.6h-10.5c-1.3,0-2.4,1.1-2.4,2.4v24c0,1.3,1.1,2.4,2.4,2.4h2.6c1.3,0,2.4-1.1,2.4-2.4V23.5
		c0-1.5,0.4-2.6,1.2-3.3c1.1-1,2.7-1.4,4.2-0.6c0.6,0.3,1.3,0.2,1.7-0.3l3.6-4.3c0.5-0.6,0.4-1.5-0.3-1.9
		C195.1,12.1,193.5,11.6,191.7,11.6z"/>
</g>
<g>
	<path class="st5" d="M17.4,12.2h-11c-0.8,0-1.5,0.7-1.5,1.5v25.2c0,0.8,0.7,1.5,1.5,1.5h2.4c0.8,0,1.5-0.7,1.5-1.5V23.8
		c0-1.9,0.5-3.4,1.5-4.5c1-1,2.3-1.6,3.8-1.6c1.6,0,2.8,0.5,3.8,1.6c1,1,1.5,2.5,1.5,4.5v15.1c0,0.8,0.7,1.5,1.5,1.5h2.4
		c0.8,0,1.5-0.7,1.5-1.5v-17c-0.1-3.2-1-5.6-2.9-7.2C21.7,13,19.7,12.2,17.4,12.2z"/>
	<path class="st5" d="M41.2,12.2c-1.3,0-2.6,0.2-3.9,0.7c-1.3,0.5-2.5,1.3-3.6,2.4c-1.1,1.1-1.9,2.5-2.6,4.4c-0.7,1.8-1,4.1-1,6.9
		c0,2.9,0.4,5.2,1.2,7c0.7,1.9,1.6,3.3,2.8,4.3c0.6,0.5,1.2,0.9,1.9,1.3c0.6,0.4,1.3,0.7,2,0.9c1.4,0.4,2.7,0.6,4.2,0.6
		c3.2,0,6-1.1,8.5-3.3c0.7-0.6,0.6-1.6,0-2.2l-1.7-1.5c-0.6-0.5-1.4-0.5-2,0c-1.5,1.2-3.1,1.8-5,1.8c-1.9,0-3.4-0.6-4.6-1.8
		c-0.9-0.8-1.5-1.9-1.7-3.3c-0.2-0.9,0.5-1.8,1.5-1.8h13.7c0.8,0,1.5-0.7,1.5-1.5V24c0-3.7-1.1-6.5-3.3-8.6
		C46.9,13.3,44.3,12.2,41.2,12.2z M37.2,24c-1,0-1.7-0.9-1.5-1.8c0.3-1.3,0.8-2.3,1.5-3.1c1-1.1,2.4-1.6,4-1.6c1.6,0,3,0.5,4,1.6
		c0.7,0.8,1.2,1.8,1.5,3.1c0.2,0.9-0.5,1.8-1.5,1.8H37.2z"/>
	<path class="st5" d="M68.4,25.3l7-10.4c0.7-1,0-2.3-1.2-2.3h-2.8c-0.5,0-1,0.3-1.3,0.7l-3.6,6.1c-0.6,1-2,1-2.6,0l-3.6-6.1
		c-0.3-0.5-0.8-0.7-1.3-0.7H56c-1.2,0-1.9,1.3-1.3,2.3l6.8,10.5c0.3,0.5,0.3,1.1,0,1.6l-7.2,11.1c-0.6,1,0.1,2.3,1.3,2.3h2.9
		c0.5,0,1-0.3,1.3-0.7l4-6.5c0.6-0.9,2-0.9,2.6,0l4,6.5c0.3,0.4,0.8,0.7,1.3,0.7h2.8c1.2,0,1.9-1.3,1.3-2.3l-7.4-11
		C68.1,26.5,68.1,25.8,68.4,25.3z"/>
</g>
</svg>
